<mxfile host="app.diagrams.net" modified="2023-09-22T07:31:12.680Z" agent="Mozilla/5.0 (Windows NT 10.0; Win64; x64) AppleWebKit/537.36 (KHTML, like Gecko) Chrome/117.0.0.0 Safari/537.36" version="21.8.0" etag="OW4fYlLiSVyElHKjZNUR" type="github">
  <diagram name="Side-1" id="w4iKm52rQXDjJaaz1mFL">
    <mxGraphModel>
      <root>
        <mxCell id="0" />
        <mxCell id="1" parent="0" />
      </root>
    </mxGraphModel>
  </diagram>
</mxfile>
